<svg id="Calque_1" data-name="Calque 1" xmlns="http://www.w3.org/2000/svg" viewBox="0 0 512 512"><defs><style>.cls-1{fill:#fff;}</style></defs><title>mug-hot-solid</title><path class="cls-1" d="M127.1,146.5a16.23,16.23,0,0,0,16,13.5h16.5c9.8,0,17.6-8.5,16.3-18a130.72,130.72,0,0,0-36.6-74.7,94.83,94.83,0,0,1-26.4-53.5A16.11,16.11,0,0,0,96.8,0H80.4A16.31,16.31,0,0,0,64.1,18a145.36,145.36,0,0,0,40.6,84.4A81.22,81.22,0,0,1,127.1,146.5Zm112,0a16.23,16.23,0,0,0,16,13.5h16.5c9.8,0,17.6-8.5,16.3-18a130.72,130.72,0,0,0-36.6-74.7,94.83,94.83,0,0,1-26.4-53.5A16.11,16.11,0,0,0,208.8,0H192.4c-9.8,0-17.5,8.5-16.3,18a145.36,145.36,0,0,0,40.6,84.4A81.22,81.22,0,0,1,239.1,146.5ZM400,192H32A32,32,0,0,0,0,224V416a96,96,0,0,0,96,96H288a96,96,0,0,0,96-96h16a112,112,0,0,0,0-224Zm0,160H384V256h16a48,48,0,0,1,0,96Z"/></svg>